HIERARCHY
ROOT Hips
{
	OFFSET 0.000000 83.214638 0.000000
	CHANNELS 6 Xposition Yposition Zposition Xrotation Yrotation Zrotation
	JOINT Pelvis
	{
		OFFSET 0.000000 0.000000 0.000000
		CHANNELS 3 Xrotation Yrotation Zrotation
		JOINT LeftUpLeg
		{
			OFFSET 8.479700 -4.795502 -0.379100
			CHANNELS 3 Xrotation Yrotation Zrotation
			JOINT LeftLeg
			{
				OFFSET 0.024144 -32.555107 0.112900
				CHANNELS 3 Xrotation Yrotation Zrotation
				JOINT LeftFoot
				{
					OFFSET -0.024144 -32.638630 -3.012600
					CHANNELS 3 Xrotation Yrotation Zrotation
					JOINT LeftToeBase
					{
						OFFSET 0.970200 -13.225400 11.864200
						CHANNELS 3 Xrotation Yrotation Zrotation
						End Site
						{
							OFFSET 0.000000 12.319262 0.000000
						}
					}
					JOINT LFootTongue
					{
						OFFSET 1.142400 -1.059800 6.665200
						CHANNELS 3 Xrotation Yrotation Zrotation
						End Site
						{
							OFFSET 0.000000 12.319262 0.000000
						}
					}
				}
				JOINT LeftPantLeg
				{
					OFFSET 0.918482 -16.533964 -2.284700
					CHANNELS 3 Xrotation Yrotation Zrotation
					End Site
					{
						OFFSET 0.350399 24.744368 0.000000
					}
				}
			}
		}
		JOINT RightUpLeg
		{
			OFFSET -8.479700 -4.795502 -0.379100
			CHANNELS 3 Xrotation Yrotation Zrotation
			JOINT RightLeg
			{
				OFFSET -0.023144 -32.555092 0.112900
				CHANNELS 3 Xrotation Yrotation Zrotation
				JOINT RightFoot
				{
					OFFSET 0.023144 -32.638641 -3.012700
					CHANNELS 3 Xrotation Yrotation Zrotation
					JOINT RightToeBase
					{
						OFFSET -0.970200 -13.225400 11.864200
						CHANNELS 3 Xrotation Yrotation Zrotation
						End Site
						{
							OFFSET 0.000000 12.319244 0.000000
						}
					}
					JOINT RFootTongue
					{
						OFFSET -1.142200 -1.059800 6.665200
						CHANNELS 3 Xrotation Yrotation Zrotation
						End Site
						{
							OFFSET 0.000000 12.319243 0.000000
						}
					}
				}
				JOINT RightPantLeg
				{
					OFFSET -0.919482 -16.533978 -2.284800
					CHANNELS 3 Xrotation Yrotation Zrotation
					End Site
					{
						OFFSET -0.350400 24.744419 0.000000
					}
				}
			}
		}
	}
	JOINT Spine
	{
		OFFSET 0.000000 7.722000 1.166200
		CHANNELS 3 Xrotation Yrotation Zrotation
		JOINT Spine1
		{
			OFFSET 0.000000 12.024101 0.248800
			CHANNELS 3 Xrotation Yrotation Zrotation
			JOINT Spine2
			{
				OFFSET 0.000000 11.502998 -0.491200
				CHANNELS 3 Xrotation Yrotation Zrotation
				JOINT Neck
				{
					OFFSET 0.000000 18.430702 -3.123100
					CHANNELS 3 Xrotation Yrotation Zrotation
					JOINT Head
					{
						OFFSET 0.000000 9.051102 1.034000
						CHANNELS 3 Xrotation Yrotation Zrotation
						JOINT HairB
						{
							OFFSET 0.208400 24.786102 24.822300
							CHANNELS 3 Xrotation Yrotation Zrotation
							End Site
							{
								OFFSET 0.000000 32.263779 0.000000
							}
						}
						JOINT HairA
						{
							OFFSET -7.081100 24.428299 23.196600
							CHANNELS 3 Xrotation Yrotation Zrotation
							End Site
							{
								OFFSET 0.000000 32.263779 0.000000
							}
						}
						JOINT Hat
						{
							OFFSET 16.728800 15.048294 -15.439601
							CHANNELS 3 Xrotation Yrotation Zrotation
							End Site
							{
								OFFSET 0.000000 32.263779 0.000000
							}
						}
					}
				}
				JOINT LeftShoulder
				{
					OFFSET 6.197800 13.665199 -4.064700
					CHANNELS 3 Xrotation Yrotation Zrotation
					JOINT LeftArm
					{
						OFFSET 7.778100 -0.187103 -1.709300
						CHANNELS 3 Xrotation Yrotation Zrotation
						JOINT LeftForeArm
						{
							OFFSET 22.049376 0.000000 0.000000
							CHANNELS 3 Xrotation Yrotation Zrotation
							JOINT LeftHand
							{
								OFFSET 23.009392 0.000000 0.000000
								CHANNELS 3 Xrotation Yrotation Zrotation
								JOINT LeftHandThumb1
								{
									OFFSET 3.507191 -2.063065 3.133727
									CHANNELS 3 Xrotation Yrotation Zrotation
									JOINT LeftHandThumb2
									{
										OFFSET 3.101337 -1.790558 1.790558
										CHANNELS 3 Xrotation Yrotation Zrotation
										JOINT LeftHandThumb3
										{
											OFFSET 3.058640 -1.765907 1.765906
											CHANNELS 3 Xrotation Yrotation Zrotation
											End Site
											{
												OFFSET -0.415260 3.926476 -0.049563
											}
										}
									}
								}
								JOINT LeftHandIndex1
								{
									OFFSET 11.334419 -0.901459 3.706815
									CHANNELS 3 Xrotation Yrotation Zrotation
									JOINT LeftHandIndex2
									{
										OFFSET 3.283112 0.000000 0.000000
										CHANNELS 3 Xrotation Yrotation Zrotation
										JOINT LeftHandIndex3
										{
											OFFSET 3.323853 0.000000 0.000000
											CHANNELS 3 Xrotation Yrotation Zrotation
											End Site
											{
												OFFSET -1.135597 3.097809 0.402452
											}
										}
									}
								}
								JOINT LeftHandMiddle1
								{
									OFFSET 11.335861 0.000000 0.000000
									CHANNELS 3 Xrotation Yrotation Zrotation
									JOINT LeftHandMiddle2
									{
										OFFSET 3.410492 0.000000 0.000000
										CHANNELS 3 Xrotation Yrotation Zrotation
										JOINT LeftHandMiddle3
										{
											OFFSET 3.312172 0.000000 0.000000
											CHANNELS 3 Xrotation Yrotation Zrotation
											End Site
											{
												OFFSET -1.150200 3.080154 0.400270
											}
										}
									}
								}
								JOINT LeftHandRing1
								{
									OFFSET 11.514786 -0.013176 -3.003090
									CHANNELS 3 Xrotation Yrotation Zrotation
									JOINT LeftHandRing2
									{
										OFFSET 3.053307 0.000000 0.000000
										CHANNELS 3 Xrotation Yrotation Zrotation
										JOINT LeftHandRing3
										{
											OFFSET 3.295807 0.000000 0.000000
											CHANNELS 3 Xrotation Yrotation Zrotation
											End Site
											{
												OFFSET -1.281006 3.013344 0.375733
											}
										}
									}
								}
								JOINT LeftHandPinky1
								{
									OFFSET 10.518692 -0.960396 -5.730441
									CHANNELS 3 Xrotation Yrotation Zrotation
									JOINT LeftHandPinky2
									{
										OFFSET 2.861649 0.000000 0.000000
										CHANNELS 3 Xrotation Yrotation Zrotation
										JOINT LeftHandPinky3
										{
											OFFSET 2.863380 0.000000 0.000000
											CHANNELS 3 Xrotation Yrotation Zrotation
											End Site
											{
												OFFSET -0.843597 2.711159 0.369971
											}
										}
									}
								}
							}
							JOINT LSleeve
							{
								OFFSET 6.676277 -0.344902 -1.011730
								CHANNELS 3 Xrotation Yrotation Zrotation
								End Site
								{
									OFFSET 0.000000 14.885353 0.000000
								}
							}
						}
					}
				}
				JOINT RightShoulder
				{
					OFFSET -6.197800 13.665199 -4.064700
					CHANNELS 3 Xrotation Yrotation Zrotation
					JOINT RightArm
					{
						OFFSET -7.778100 -0.187103 -1.709300
						CHANNELS 3 Xrotation Yrotation Zrotation
						JOINT RightForeArm
						{
							OFFSET -22.049376 0.000000 0.000000
							CHANNELS 3 Xrotation Yrotation Zrotation
							JOINT RightHand
							{
								OFFSET -23.009392 0.000000 0.000000
								CHANNELS 3 Xrotation Yrotation Zrotation
								JOINT RightHandThumb1
								{
									OFFSET -3.507191 -2.063065 3.133727
									CHANNELS 3 Xrotation Yrotation Zrotation
									JOINT RightHandThumb2
									{
										OFFSET -3.101337 -1.790558 1.790558
										CHANNELS 3 Xrotation Yrotation Zrotation
										JOINT RightHandThumb3
										{
											OFFSET -3.058640 -1.765907 1.765906
											CHANNELS 3 Xrotation Yrotation Zrotation
											End Site
											{
												OFFSET 0.415260 3.926476 -0.049563
											}
										}
									}
								}
								JOINT RightHandIndex1
								{
									OFFSET -11.334419 -0.901459 3.706815
									CHANNELS 3 Xrotation Yrotation Zrotation
									JOINT RightHandIndex2
									{
										OFFSET -3.283112 0.000000 0.000000
										CHANNELS 3 Xrotation Yrotation Zrotation
										JOINT RightHandIndex3
										{
											OFFSET -3.323853 0.000000 0.000000
											CHANNELS 3 Xrotation Yrotation Zrotation
											End Site
											{
												OFFSET 1.135597 3.097809 0.402452
											}
										}
									}
								}
								JOINT RightHandMiddle1
								{
									OFFSET -11.335861 0.000000 0.000000
									CHANNELS 3 Xrotation Yrotation Zrotation
									JOINT RightHandMiddle2
									{
										OFFSET -3.410492 0.000000 0.000000
										CHANNELS 3 Xrotation Yrotation Zrotation
										JOINT RightHandMiddle3
										{
											OFFSET -3.312172 0.000000 0.000000
											CHANNELS 3 Xrotation Yrotation Zrotation
											End Site
											{
												OFFSET 1.150200 3.080154 0.400270
											}
										}
									}
								}
								JOINT RightHandRing1
								{
									OFFSET -11.514786 -0.013176 -3.003090
									CHANNELS 3 Xrotation Yrotation Zrotation
									JOINT RightHandRing2
									{
										OFFSET -3.053307 0.000000 0.000000
										CHANNELS 3 Xrotation Yrotation Zrotation
										JOINT RightHandRing3
										{
											OFFSET -3.295807 0.000000 0.000000
											CHANNELS 3 Xrotation Yrotation Zrotation
											End Site
											{
												OFFSET 1.281006 3.013344 0.375733
											}
										}
									}
								}
								JOINT RightHandPinky1
								{
									OFFSET -10.518692 -0.960396 -5.730441
									CHANNELS 3 Xrotation Yrotation Zrotation
									JOINT RightHandPinky2
									{
										OFFSET -2.861649 0.000000 0.000000
										CHANNELS 3 Xrotation Yrotation Zrotation
										JOINT RightHandPinky3
										{
											OFFSET -2.863380 0.000000 0.000000
											CHANNELS 3 Xrotation Yrotation Zrotation
											End Site
											{
												OFFSET 0.843597 2.711159 0.369971
											}
										}
									}
								}
							}
							JOINT RSleeve
							{
								OFFSET -6.676277 -0.344902 -1.011730
								CHANNELS 3 Xrotation Yrotation Zrotation
								End Site
								{
									OFFSET 0.000000 14.885353 0.000000
								}
							}
						}
					}
				}
				JOINT Backpack
				{
					OFFSET 0.000000 -2.471497 36.677502
					CHANNELS 3 Xrotation Yrotation Zrotation
					End Site
					{
						OFFSET 0.000000 20.427315 0.000000
					}
				}
				JOINT Hood
				{
					OFFSET 0.000000 18.754097 -10.431000
					CHANNELS 3 Xrotation Yrotation Zrotation
					JOINT Hood1
					{
						OFFSET 0.000000 -5.011002 -7.685901
						CHANNELS 3 Xrotation Yrotation Zrotation
						End Site
						{
							OFFSET 0.000000 9.175140 0.000000
						}
					}
				}
				JOINT LHoodieString
				{
					OFFSET 5.250500 16.397697 3.089900
					CHANNELS 3 Xrotation Yrotation Zrotation
					JOINT LHoodieString1
					{
						OFFSET 0.257700 -6.364304 3.694600
						CHANNELS 3 Xrotation Yrotation Zrotation
						JOINT LHoodieString2
						{
							OFFSET 0.000000 -9.643799 2.679100
							CHANNELS 3 Xrotation Yrotation Zrotation
							End Site
							{
								OFFSET 0.000000 10.009018 0.000000
							}
						}
					}
				}
				JOINT RHoodieString
				{
					OFFSET -5.250500 16.397697 3.089900
					CHANNELS 3 Xrotation Yrotation Zrotation
					JOINT RHoodieString1
					{
						OFFSET -0.257700 -6.364304 3.694600
						CHANNELS 3 Xrotation Yrotation Zrotation
						JOINT RHoodieString2
						{
							OFFSET 0.000000 -9.643799 2.679100
							CHANNELS 3 Xrotation Yrotation Zrotation
							End Site
							{
								OFFSET 0.000000 10.009018 0.000000
							}
						}
					}
				}
			}
			JOINT LBackpack_Strap
			{
				OFFSET 15.223200 -7.719803 -6.610900
				CHANNELS 3 Xrotation Yrotation Zrotation
				End Site
				{
					OFFSET 0.000000 16.040596 0.000000
				}
			}
			JOINT RBackpack_Strap
			{
				OFFSET -15.223000 -7.719803 -6.610900
				CHANNELS 3 Xrotation Yrotation Zrotation
				End Site
				{
					OFFSET 0.000000 16.040596 0.000000
				}
			}
		}
	}
	JOINT BoyFacialAnim_Joint
	{
		OFFSET 1.000000 -82.208099 -1.550900
		CHANNELS 3 Xrotation Yrotation Zrotation
		End Site
		{
			OFFSET 0.000000 30.012791 0.000000
		}
	}
}
MOTION
Frames: 4
Frame Time: 0.016667
-1.336817 73.043694 9.813954 3.879639 -66.412914 1.770854 -0.000000 0.000001 -0.000000 -30.856090 47.824527 39.200098 58.510788 11.488849 -4.451709 -32.676229 5.134850 8.156019 -0.000000 0.000001 -0.000002 -0.000000 0.000001 -0.000001 -0.000002 -0.000000 0.000000 -16.756155 1.513975 -27.699176 28.802249 2.618235 -0.185061 -16.789828 -1.532751 25.081308 0.000000 0.000001 -0.000000 0.000000 0.000001 -0.000000 -0.000000 0.000001 0.000001 7.939716 -7.915820 6.886177 -0.190742 -11.250285 6.028637 -11.447047 -11.562244 5.338306 3.252605 40.080312 6.930933 20.046156 25.136476 -4.753816 0.000000 0.000000 -0.000001 0.000000 0.000000 -0.000001 0.000000 0.000000 -0.000001 7.036027 -21.717430 28.304179 -17.434024 -22.035030 -5.063775 -0.024463 -18.120272 -4.741184 -3.552983 -6.370909 13.626883 42.313056 -18.874760 16.581737 -1.124737 11.542638 -8.102159 -0.000002 -0.000000 0.000003 -2.169670 -7.707818 -52.286437 -1.077022 -2.178628 -57.035795 0.000000 -0.000001 -0.000004 0.593503 2.455634 -56.484380 -1.132154 -2.997378 -65.080228 0.000001 0.000000 0.000000 1.303222 5.891422 -65.858234 -2.589224 -2.454430 -70.907971 -0.000001 0.000001 -0.000004 0.029053 4.541945 -74.162385 -2.684742 -2.230670 -68.744679 0.000000 0.000001 -0.000002 -0.000000 0.000001 0.000003 0.930707 -15.187713 4.991300 -54.595218 -4.695022 -21.803101 -1.943037 39.705450 7.057015 -51.183474 -15.861554 -14.387261 55.149526 18.649553 -29.698267 -0.442535 -14.180537 7.313148 -0.000001 -0.000001 0.000006 5.673368 7.585011 36.844171 1.050460 3.824476 68.900257 0.000000 -0.000000 0.000005 -0.125691 1.886079 45.000780 -1.169019 3.204689 68.417691 -0.000000 -0.000001 -0.000000 -5.312017 1.216620 58.508828 -0.745196 1.667583 48.011251 -0.000002 -0.000002 -0.000002 -7.756801 -9.376467 47.264025 -0.526048 1.541588 45.600494 0.000001 -0.000000 0.000002 -0.000006 -0.000001 0.000003 -0.000000 -0.000000 -0.000000 -0.000000 -0.000000 -0.000000 -0.000000 -0.000000 -0.000000 -0.000000 -0.000000 -0.000000 -0.000000 -0.000000 -0.000000 -0.000000 0.000001 -0.000001 -0.000000 -0.000000 -0.000000 -0.000000 -0.000000 -0.000000 -0.000000 0.000001 -0.000001 0.000001 0.000000 -0.000000 0.000001 0.000000 -0.000000 -0.000000 0.000001 -0.000000 
-1.899419 73.335373 10.357202 0.141259 -63.571432 -1.465365 -0.000000 0.000001 -0.000000 -27.544853 47.670564 37.184035 56.531311 11.540015 -4.011958 -33.045866 4.540671 9.579619 -0.000000 0.000000 -0.000001 -0.000000 0.000000 -0.000001 -0.000002 0.000000 -0.000000 -13.126275 1.447940 -27.850356 30.299064 0.221419 0.776031 -19.556495 -2.700277 21.861205 -0.000000 0.000001 0.000000 -0.000000 0.000001 0.000000 -0.000000 0.000002 -0.000004 7.657866 -7.906205 6.810721 -0.769985 -11.249930 5.778992 -12.026594 -11.514016 5.093315 5.352069 37.304741 7.154966 18.938306 24.498260 -3.642629 -0.000000 0.000000 0.000000 -0.000000 0.000000 0.000000 -0.000000 0.000000 0.000000 7.857577 -21.919604 30.974464 -21.326282 -25.568321 -2.826535 -0.025387 -17.497934 -4.137782 -2.765581 -6.958308 14.864495 42.927572 -18.897846 16.453185 -0.945125 11.655989 -8.273424 -0.000002 0.000001 -0.000001 -2.215079 -7.742161 -53.603881 -1.119908 -2.204944 -58.146097 -0.000002 0.000000 0.000002 0.537338 2.419241 -57.792744 -1.191435 -3.024536 -66.361141 -0.000002 0.000000 0.000002 1.239040 5.863652 -67.162254 -2.655539 -2.476364 -72.221362 -0.000001 0.000001 -0.000000 -0.038030 4.523846 -75.467628 -2.752217 -2.255867 -70.057715 -0.000000 0.000000 -0.000000 -0.000000 0.000000 -0.000000 0.146580 -15.459971 2.713260 -57.506129 -5.072660 -23.534923 -0.738071 40.895163 7.076521 -50.027304 -13.816082 -14.796350 55.149529 18.649551 -29.698274 -0.442542 -14.180537 7.313142 0.000002 0.000006 0.000001 5.673365 7.585012 36.844171 1.050462 3.824479 68.900257 -0.000001 0.000001 0.000002 -0.125692 1.886080 45.000780 -1.169017 3.204686 68.417684 0.000001 -0.000000 -0.000000 -5.312020 1.216619 58.508828 -0.745194 1.667582 48.011247 0.000000 -0.000001 0.000002 -7.756802 -9.376466 47.264025 -0.526052 1.541587 45.600491 -0.000000 0.000000 0.000004 -0.000001 0.000000 -0.000002 -0.000000 0.000000 0.000000 -0.000000 0.000000 0.000000 -0.000000 0.000000 0.000000 -0.000000 0.000000 0.000000 -0.000000 0.000000 0.000000 -0.000000 0.000000 0.000000 -0.000000 0.000000 0.000000 -0.000000 0.000000 0.000000 -0.000000 0.000000 0.000000 -0.000000 0.000000 0.000001 -0.000000 0.000000 0.000001 -0.000000 0.000001 -0.000000 
-2.439793 73.656349 10.993806 -2.805472 -60.494917 -3.603853 -0.000000 -0.000001 0.000000 -23.903227 47.619020 35.268607 54.397327 10.614890 -3.964161 -32.898398 4.448999 9.855140 -0.000000 -0.000001 -0.000004 -0.000000 -0.000001 -0.000004 0.000003 0.000000 0.000001 -9.240306 1.285788 -28.441010 31.323108 -2.778857 2.592040 -21.053939 -4.124366 18.395740 -0.000000 -0.000001 -0.000000 -0.000000 -0.000001 -0.000000 -0.000000 -0.000000 -0.000001 7.288705 -7.880577 6.623617 -1.527751 -11.209414 5.298616 -12.782773 -11.382077 4.629937 8.338204 34.560378 6.887033 17.862384 23.738205 -2.470268 -0.000000 -0.000001 0.000001 -0.000000 -0.000001 0.000001 -0.000000 -0.000001 0.000001 8.584869 -21.755787 33.610155 -27.651770 -28.364626 -2.405168 -0.026663 -18.419769 -2.358933 -5.291962 -5.926813 14.285852 43.353991 -18.915840 16.360955 -0.820368 11.735190 -8.393319 -0.000001 0.000000 -0.000003 -2.247286 -7.764464 -54.521985 -1.150280 -2.222070 -58.919903 0.000001 -0.000001 -0.000002 0.497594 2.394602 -58.704472 -1.233044 -3.040912 -67.253779 -0.000002 -0.000001 0.000004 1.193975 5.845132 -68.070902 -2.702001 -2.490739 -73.136545 0.000000 0.000000 -0.000002 -0.085038 4.512082 -76.377211 -2.799534 -2.272565 -70.972728 -0.000000 0.000001 0.000002 -0.000000 0.000000 0.000002 -0.667859 -15.637517 0.241171 -60.363559 -5.259261 -25.202681 0.541691 42.083230 7.030240 -48.692822 -11.717012 -15.338704 55.149526 18.649555 -29.698277 -0.442538 -14.180537 7.313142 0.000001 -0.000001 -0.000002 5.673367 7.585012 36.844175 1.050461 3.824479 68.900257 -0.000001 -0.000001 0.000003 -0.125691 1.886081 45.000776 -1.169019 3.204687 68.417691 0.000001 0.000001 0.000002 -5.312019 1.216618 58.508828 -0.745197 1.667582 48.011254 -0.000002 0.000000 -0.000001 -7.756802 -9.376467 47.264031 -0.526049 1.541585 45.600488 0.000000 -0.000000 0.000000 0.000002 0.000001 -0.000001 -0.000000 -0.000000 0.000001 -0.000000 -0.000000 0.000001 -0.000000 -0.000000 0.000001 -0.000000 -0.000000 0.000001 -0.000000 -0.000000 0.000000 -0.000000 -0.000000 0.000001 -0.000000 -0.000000 0.000001 -0.000000 -0.000000 0.000000 -0.000000 -0.000000 0.000001 -0.000000 0.000000 0.000001 -0.000000 0.000000 0.000001 -0.000000 -0.000001 0.000000 
-2.929237 73.985626 11.883766 -4.355069 -57.487045 -4.411413 0.000000 -0.000000 -0.000000 -20.383431 47.562862 33.624980 52.172373 8.732578 -4.224429 -32.242687 4.907897 8.421852 -0.000000 -0.000000 -0.000001 -0.000000 -0.000000 -0.000001 -0.000003 0.000000 0.000000 -5.602007 0.889019 -29.415173 31.507181 -6.047963 5.375853 -20.489179 -5.301069 14.302254 0.000000 0.000000 -0.000001 0.000000 0.000000 -0.000001 0.000001 -0.000000 -0.000001 6.796633 -7.854325 6.383056 -2.535070 -11.161995 4.689576 -13.787176 -11.218765 4.041870 11.602458 31.881110 6.465382 17.424403 22.943889 -1.329563 0.000000 -0.000001 0.000003 0.000000 -0.000001 0.000003 0.000000 -0.000001 0.000003 8.478564 -20.502881 36.126260 -34.534748 -32.188417 -4.144992 -0.027684 -17.857396 -0.308369 -9.297701 -5.515038 15.170699 43.570590 -18.924880 16.312483 -0.757224 11.775697 -8.454599 -0.000001 -0.000004 -0.000001 -2.263429 -7.775075 -54.989552 -1.165427 -2.230473 -59.314073 0.000000 -0.000002 -0.000007 0.478525 2.383213 -59.168938 -1.253583 -3.047945 -67.708458 -0.000001 0.000001 -0.000003 1.171032 5.836709 -68.533688 -2.726079 -2.497400 -73.602822 -0.000001 -0.000000 -0.000000 -0.109031 4.506842 -76.840448 -2.824285 -2.279906 -71.438820 0.000000 0.000000 -0.000002 -0.000000 0.000000 0.000002 -1.505393 -15.764138 -2.396701 -63.043384 -5.187530 -26.544799 1.665755 43.271847 6.930259 -47.203161 -9.686929 -15.881242 55.149526 18.649557 -29.698274 -0.442540 -14.180536 7.313144 -0.000000 0.000002 0.000000 5.673366 7.585012 36.844171 1.050460 3.824478 68.900257 -0.000002 -0.000000 0.000002 -0.125690 1.886081 45.000773 -1.169018 3.204689 68.417691 0.000000 0.000000 0.000002 -5.312017 1.216618 58.508828 -0.745195 1.667580 48.011251 -0.000001 -0.000001 0.000002 -7.756800 -9.376468 47.264025 -0.526049 1.541590 45.600494 0.000000 0.000000 0.000000 -0.000000 -0.000003 -0.000001 -0.000000 -0.000000 0.000002 -0.000000 -0.000000 0.000002 -0.000000 -0.000000 0.000002 -0.000000 -0.000000 0.000002 -0.000000 -0.000000 0.000000 0.000000 -0.000000 0.000000 -0.000000 -0.000000 0.000002 -0.000000 -0.000000 0.000000 0.000000 -0.000000 0.000000 0.000000 -0.000001 -0.000001 0.000000 -0.000001 -0.000001 0.000000 -0.000000 -0.000000 
